G04 Layer: TopLayer*
G04 EasyEDA Pro v2.2.46.11, 2026-03-13 18:04:58*
G04 Gerber Generator version 0.3*
G04 Scale: 100 percent, Rotated: No, Reflected: No*
G04 Dimensions in inches*
G04 Leading zeros omitted, absolute positions, 3 integers and 6 decimals*
G04 Generated by custom config*
%FSLAX36Y36*%
%MOIN*%
%ADD10R,0.015748X0.015748*%
%ADD11C,0.015748*%
%ADD12C,0.8568*%
G75*


G04 Pad Start*
G54D10*
G01X239370Y-106523D03*
G01X280630Y-106523D03*
G01X320000Y-106523D03*
G01X320000Y-225000D03*
G01X200000Y-225000D03*
G01X200000Y-106523D03*
G01X244685Y-195000D03*
G01X275000Y-195000D03*
G01X290000Y-195000D03*
G01X290000Y-135000D03*
G01X230000Y-135000D03*
G01X230000Y-195000D03*
G01X320000Y-64239D03*
G01X320000Y54239D03*
G01X290000Y25761D03*
G01X290000Y-34239D03*
G01X280630Y54239D03*
G01X275000Y-34239D03*
G01X244685Y-34239D03*
G01X239370Y54239D03*
G01X230000Y25761D03*
G01X230000Y-34239D03*
G01X200000Y-64239D03*
G01X200000Y54239D03*
G01X320000Y95761D03*
G01X320000Y214239D03*
G01X290000Y185761D03*
G01X290000Y125761D03*
G01X280630Y214239D03*
G01X275000Y125761D03*
G01X244685Y125761D03*
G01X239370Y214239D03*
G01X230000Y185761D03*
G01X230000Y125761D03*
G01X200000Y95761D03*
G01X200000Y214239D03*
G01X60000Y-224619D03*
G01X60000Y-106142D03*
G01X30000Y-134619D03*
G01X30000Y-194619D03*
G01X20630Y-106142D03*
G01X15000Y-194619D03*
G01X-15315Y-194619D03*
G01X-20630Y-106142D03*
G01X-30000Y-134619D03*
G01X-30000Y-194619D03*
G01X-60000Y-224619D03*
G01X-60000Y-106142D03*
G01X60000Y-63858D03*
G01X60000Y54619D03*
G01X30000Y26142D03*
G01X30000Y-33858D03*
G01X20630Y54619D03*
G01X15000Y-33858D03*
G01X-15315Y-33858D03*
G01X-20630Y54619D03*
G01X-30000Y26142D03*
G01X-30000Y-33858D03*
G01X-60000Y-63858D03*
G01X-60000Y54619D03*
G01X60000Y96142D03*
G01X60000Y214619D03*
G01X30000Y186142D03*
G01X30000Y126142D03*
G01X20630Y214619D03*
G01X15000Y126142D03*
G01X-15315Y126142D03*
G01X-20630Y214619D03*
G01X-30000Y186142D03*
G01X-30000Y126142D03*
G01X-60000Y96142D03*
G01X-60000Y214619D03*
G01X-234370Y54619D03*
G01X-275630Y54619D03*
G01X-315000Y54619D03*
G01X-195000Y214619D03*
G01X-225000Y186142D03*
G01X-225000Y126142D03*
G01X-234370Y214619D03*
G01X-240000Y126142D03*
G01X-270315Y126142D03*
G01X-275630Y214619D03*
G01X-285000Y186142D03*
G01X-285000Y126142D03*
G01X-315000Y96142D03*
G01X-315000Y214619D03*
G01X-195000Y54619D03*
G01X-195000Y96142D03*
G01X-315000Y-224619D03*
G01X-195000Y-224619D03*
G01X-195000Y-106142D03*
G01X-225000Y-134619D03*
G01X-225000Y-194619D03*
G01X-234370Y-106142D03*
G01X-240000Y-194619D03*
G01X-270315Y-194619D03*
G01X-275630Y-106142D03*
G01X-285000Y-134619D03*
G01X-285000Y-194619D03*
G01X-315000Y-106142D03*
G01X-195000Y-63858D03*
G01X-225000Y26142D03*
G01X-225000Y-33858D03*
G01X-240000Y-33858D03*
G01X-270315Y-33858D03*
G01X-285000Y26142D03*
G01X-285000Y-33858D03*
G01X-315000Y-63858D03*
G04 Pad End*

G04 Track Start*
G54D11*
G01X320000Y-225000D02*
G01X320000Y-106523D01*
G01X201890Y-225000D02*
G01X320000Y-225000D01*
G01X200000Y-106523D02*
G01X200000Y-224055D01*
G01X230000Y-135000D02*
G01X230000Y-195000D01*
G01X289685Y-135000D02*
G01X230000Y-135000D01*
G01X230000Y-195000D02*
G01X244685Y-195000D01*
G01X290000Y-195000D02*
G01X290000Y-138835D01*
G01X275000Y-195000D02*
G01X289685Y-195000D01*
G01X200000Y-106523D02*
G01X239370Y-106523D01*
G01X320000Y-106523D02*
G01X280630Y-106523D01*
G01X320000Y-64239D02*
G01X320000Y54239D01*
G01X280630Y54239D01*
G01X290000Y-34239D02*
G01X290000Y21926D01*
G01X275000Y-34239D02*
G01X289685Y-34239D01*
G01X201890Y-64239D02*
G01X320000Y-64239D01*
G01X289685Y25761D02*
G01X230000Y25761D01*
G01X230000Y-34239D02*
G01X244685Y-34239D01*
G01X230000Y25761D02*
G01X230000Y-34239D01*
G01X200000Y54239D02*
G01X239370Y54239D01*
G01X200000Y54239D02*
G01X200000Y-63294D01*
G01X320000Y95761D02*
G01X320000Y214239D01*
G01X280630Y214239D01*
G01X290000Y125761D02*
G01X290000Y181926D01*
G01X275000Y125761D02*
G01X289685Y125761D01*
G01X201890Y95761D02*
G01X320000Y95761D01*
G01X289685Y185761D02*
G01X230000Y185761D01*
G01X230000Y125761D02*
G01X244685Y125761D01*
G01X230000Y185761D02*
G01X230000Y125761D01*
G01X200000Y214239D02*
G01X239370Y214239D01*
G01X200000Y214239D02*
G01X200000Y96706D01*
G01X60000Y-224619D02*
G01X60000Y-106142D01*
G01X20630Y-106142D01*
G01X30000Y-194619D02*
G01X30000Y-138454D01*
G01X15000Y-194619D02*
G01X29685Y-194619D01*
G01X-58110Y-224619D02*
G01X60000Y-224619D01*
G01X29685Y-134619D02*
G01X-30000Y-134619D01*
G01X-30000Y-194619D02*
G01X-15315Y-194619D01*
G01X-30000Y-134619D02*
G01X-30000Y-194619D01*
G01X-60000Y-106142D02*
G01X-20630Y-106142D01*
G01X-60000Y-106142D02*
G01X-60000Y-223674D01*
G01X60000Y-63858D02*
G01X60000Y54619D01*
G01X20630Y54619D01*
G01X30000Y-33858D02*
G01X30000Y22307D01*
G01X15000Y-33858D02*
G01X29685Y-33858D01*
G01X-58110Y-63858D02*
G01X60000Y-63858D01*
G01X29685Y26142D02*
G01X-30000Y26142D01*
G01X-30000Y-33858D02*
G01X-15315Y-33858D01*
G01X-30000Y26142D02*
G01X-30000Y-33858D01*
G01X-60000Y54619D02*
G01X-20630Y54619D01*
G01X-60000Y54619D02*
G01X-60000Y-62913D01*
G01X60000Y96142D02*
G01X60000Y214619D01*
G01X20630Y214619D01*
G01X30000Y126142D02*
G01X30000Y182307D01*
G01X15000Y126142D02*
G01X29685Y126142D01*
G01X-58110Y96142D02*
G01X60000Y96142D01*
G01X29685Y186142D02*
G01X-30000Y186142D01*
G01X-30000Y126142D02*
G01X-15315Y126142D01*
G01X-30000Y186142D02*
G01X-30000Y126142D01*
G01X-60000Y214619D02*
G01X-20630Y214619D01*
G01X-60000Y214619D02*
G01X-60000Y97087D01*
G01X-195000Y96142D02*
G01X-195000Y214619D01*
G01X-234370Y214619D01*
G01X-225000Y126142D02*
G01X-225000Y182307D01*
G01X-240000Y126142D02*
G01X-225315Y126142D01*
G01X-313110Y96142D02*
G01X-195000Y96142D01*
G01X-225315Y186142D02*
G01X-285000Y186142D01*
G01X-285000Y126142D02*
G01X-270315Y126142D01*
G01X-285000Y186142D02*
G01X-285000Y126142D01*
G01X-315000Y214619D02*
G01X-275630Y214619D01*
G01X-315000Y214619D02*
G01X-315000Y97087D01*
G01X-315000Y-106142D02*
G01X-315000Y-223674D01*
G01X-195000Y-224619D02*
G01X-195000Y-106142D01*
G01X-234370Y-106142D01*
G01X-225000Y-194619D02*
G01X-225000Y-138454D01*
G01X-240000Y-194619D02*
G01X-225315Y-194619D01*
G01X-313110Y-224619D02*
G01X-195000Y-224619D01*
G01X-225315Y-134619D02*
G01X-285000Y-134619D01*
G01X-285000Y-194619D02*
G01X-270315Y-194619D01*
G01X-285000Y-134619D02*
G01X-285000Y-194619D01*
G01X-315000Y-106142D02*
G01X-275630Y-106142D01*
G01X-195000Y-63858D02*
G01X-195000Y54619D01*
G01X-234370Y54619D01*
G01X-225000Y-33858D02*
G01X-225000Y22307D01*
G01X-240000Y-33858D02*
G01X-225315Y-33858D01*
G01X-313110Y-63858D02*
G01X-195000Y-63858D01*
G01X-225315Y26142D02*
G01X-285000Y26142D01*
G01X-285000Y-33858D02*
G01X-270315Y-33858D01*
G01X-285000Y26142D02*
G01X-285000Y-33858D01*
G01X-315000Y54619D02*
G01X-275630Y54619D01*
G01X-315000Y54619D02*
G01X-315000Y-62913D01*
G04 Track End*

M02*

